<svg width="21" height="20" viewBox="0 0 21 20" fill="none" xmlns="http://www.w3.org/2000/svg">
<path d="M11.5215 12.1583C13.2427 12.8961 14.1033 13.265 14.971 13.1493C15.0689 13.1362 15.1662 13.1186 15.2625 13.0964C16.1156 12.9005 16.7922 12.2531 18.1453 10.9582L18.3042 10.8063C19.3301 9.78007 19.8432 9.26693 19.9678 8.21957C20.0924 7.17221 19.8249 6.73457 19.2901 5.85928C18.815 5.08162 18.1515 4.19508 17.228 3.27137C16.3045 2.34766 15.418 1.68405 14.6405 1.20878C13.7654 0.673849 13.3279 0.406383 12.2808 0.530981C11.2336 0.655589 10.7206 1.16871 9.69462 2.19496L9.54268 2.35371C8.24821 3.7072 7.60093 4.38393 7.40497 5.23735C7.38289 5.33356 7.36529 5.43075 7.35224 5.5286C7.23648 6.39654 7.60532 7.25736 8.34304 8.97899" stroke="#4D4D4D" stroke-linecap="round" stroke-linejoin="round"/>
<path d="M9.06063 8.41342L1 16.476V19.4992H4.02274V17.4837H6.0379V15.4683H8.05306L12.0834 11.4373" stroke="#4D4D4D" stroke-linecap="round" stroke-linejoin="round"/>
<path d="M15.2563 5.25082L13.673 6.83451" stroke="#4D4D4D" stroke-linecap="round" stroke-linejoin="round"/>
</svg>
