<svg width="20" height="20" viewBox="0 0 20 20" fill="none" xmlns="http://www.w3.org/2000/svg">
<path d="M5.00262 6.36542H9.50262M9.50262 6.36542H12.5026M9.50262 6.36542V4.98611M15.0026 6.36542H12.5026M12.5026 6.36542C11.9751 8.25171 10.8705 10.0348 9.60972 11.6019M9.60972 11.6019C8.56572 12.8995 7.41467 14.0489 6.39548 14.9861M9.60972 11.6019C8.96692 10.8482 8.06692 9.62871 7.80976 9.07701M9.60972 11.6019L11.5383 13.6068" stroke="#4D4D4D" stroke-linecap="round" stroke-linejoin="round"/>
<path d="M0.5 10C0.5 5.52166 0.5 3.28249 1.89124 1.89124C3.28249 0.5 5.52166 0.5 10 0.5C14.4783 0.5 16.7175 0.5 18.1088 1.89124C19.5 3.28249 19.5 5.52166 19.5 10C19.5 14.4783 19.5 16.7175 18.1088 18.1088C16.7175 19.5 14.4783 19.5 10 19.5C5.52166 19.5 3.28249 19.5 1.89124 18.1088C0.5 16.7175 0.5 14.4783 0.5 10Z" stroke="#4D4D4D"/>
</svg>
