<svg width="21" height="18" viewBox="0 0 21 18" fill="none" xmlns="http://www.w3.org/2000/svg">
<path d="M1 3.125L7.56736 6.84612C9.98851 8.21794 11.0115 8.21794 13.4326 6.84612L20 3.125" stroke="#4D4D4D" stroke-linejoin="round"/>
<path d="M1.01498 10.2268C1.07708 13.1391 1.10814 14.5952 2.18271 15.6739C3.25727 16.7525 4.75281 16.7901 7.74388 16.8652C9.58732 16.9116 11.4127 16.9116 13.2561 16.8652C16.2472 16.7901 17.7427 16.7525 18.8173 15.6739C19.8919 14.5952 19.9229 13.1391 19.985 10.2268C20.005 9.2904 20.005 8.35959 19.985 7.42317C19.9229 4.51091 19.8919 3.05478 18.8173 1.97613C17.7427 0.897469 16.2472 0.859897 13.2561 0.784743C11.4127 0.738421 9.58732 0.738421 7.74387 0.784733C4.75281 0.859878 3.25727 0.89745 2.1827 1.97612C1.10813 3.05477 1.07708 4.5109 1.01497 7.42317C0.995003 8.35959 0.995013 9.2904 1.01498 10.2268Z" stroke="#4D4D4D" stroke-linejoin="round"/>
</svg>
