<svg width="45" height="45" viewBox="0 0 45 45" fill="none" xmlns="http://www.w3.org/2000/svg">
<rect width="44.5509" height="44.5509" rx="22.2755" fill="#DAF1FB"/>
<path d="M27.7052 32.6057C27.7052 35.5122 25.3491 37.8683 22.4426 37.8683C19.5362 37.8683 17.1801 35.5122 17.1801 32.6057" stroke="#00A0E3" stroke-width="1.5" stroke-linecap="round" stroke-linejoin="round"/>
<path d="M32.9676 22.0805V23.9687C32.9676 25.165 33.4429 26.3124 34.2888 27.1583L35.1958 28.0653C35.6946 28.5642 35.9748 29.2406 35.9748 29.946C35.9748 31.4148 34.784 32.6057 33.3151 32.6057H11.5698C10.1009 32.6057 8.91016 31.4148 8.91016 29.946C8.91016 29.2406 9.19037 28.5642 9.68915 28.0653L10.5962 27.1583C11.4421 26.3124 11.9173 25.165 11.9173 23.9687V19.8251C11.9173 14.0123 16.6296 9.29999 22.4425 9.29999" stroke="#00A0E3" stroke-width="1.5" stroke-linecap="round" stroke-linejoin="round"/>
<path d="M35.9749 13.059C35.9749 10.1525 33.6187 7.79639 30.7123 7.79639C27.8058 7.79639 25.4497 10.1525 25.4497 13.059C25.4497 15.9654 27.8058 18.3215 30.7123 18.3215C33.6187 18.3215 35.9749 15.9654 35.9749 13.059Z" stroke="#00A0E3" stroke-width="1.5" stroke-linecap="round" stroke-linejoin="round"/>
</svg>
