<svg width="102" height="7" viewBox="0 0 102 7" fill="none" xmlns="http://www.w3.org/2000/svg">
<path d="M3.37166 7C2.43202 7 1.63056 6.66667 0.967279 6C0.322426 5.31429 0 4.48571 0 3.51429C0 2.52381 0.322426 1.69524 0.967279 1.02857C1.63056 0.342857 2.43202 0 3.37166 0C4.32972 0 5.1404 0.342857 5.80367 1.02857C6.46695 1.69524 6.79859 2.52381 6.79859 3.51429C6.79859 4.48571 6.46695 5.31429 5.80367 6C5.1404 6.66667 4.32972 7 3.37166 7Z" fill="#909090"/>
<path d="M16.9719 7C16.0322 7 15.2308 6.66667 14.5675 6C13.9226 5.31429 13.6002 4.48571 13.6002 3.51429C13.6002 2.52381 13.9226 1.69524 14.5675 1.02857C15.2308 0.342857 16.0322 0 16.9719 0C17.9299 0 18.7406 0.342857 19.4039 1.02857C20.0672 1.69524 20.3988 2.52381 20.3988 3.51429C20.3988 4.48571 20.0672 5.31429 19.4039 6C18.7406 6.66667 17.9299 7 16.9719 7Z" fill="#909090"/>
<path d="M30.5721 7C29.6324 7 28.831 6.66667 28.1677 6C27.5228 5.31429 27.2004 4.48571 27.2004 3.51429C27.2004 2.52381 27.5228 1.69524 28.1677 1.02857C28.831 0.342857 29.6324 0 30.5721 0C31.5301 0 32.3408 0.342857 33.0041 1.02857C33.6674 1.69524 33.999 2.52381 33.999 3.51429C33.999 4.48571 33.6674 5.31429 33.0041 6C32.3408 6.66667 31.5301 7 30.5721 7Z" fill="#909090"/>
<path d="M44.1723 7C43.2326 7 42.4312 6.66667 41.7679 6C41.123 5.31429 40.8006 4.48571 40.8006 3.51429C40.8006 2.52381 41.123 1.69524 41.7679 1.02857C42.4312 0.342857 43.2326 0 44.1723 0C45.1303 0 45.941 0.342857 46.6043 1.02857C47.2676 1.69524 47.5992 2.52381 47.5992 3.51429C47.5992 4.48571 47.2676 5.31429 46.6043 6C45.941 6.66667 45.1303 7 44.1723 7Z" fill="#909090"/>
<path d="M57.7725 7C56.8328 7 56.0314 6.66667 55.3681 6C54.7232 5.31429 54.4008 4.48571 54.4008 3.51429C54.4008 2.52381 54.7232 1.69524 55.3681 1.02857C56.0314 0.342857 56.8328 0 57.7725 0C58.7305 0 59.5412 0.342857 60.2045 1.02857C60.8678 1.69524 61.1994 2.52381 61.1994 3.51429C61.1994 4.48571 60.8678 5.31429 60.2045 6C59.5412 6.66667 58.7305 7 57.7725 7Z" fill="#909090"/>
<path d="M71.3727 7C70.433 7 69.6316 6.66667 68.9683 6C68.3234 5.31429 68.001 4.48571 68.001 3.51429C68.001 2.52381 68.3234 1.69524 68.9683 1.02857C69.6316 0.342857 70.433 0 71.3727 0C72.3307 0 73.1414 0.342857 73.8047 1.02857C74.468 1.69524 74.7996 2.52381 74.7996 3.51429C74.7996 4.48571 74.468 5.31429 73.8047 6C73.1414 6.66667 72.3307 7 71.3727 7Z" fill="#909090"/>
<path d="M84.9729 7C84.0332 7 83.2318 6.66667 82.5685 6C81.9236 5.31429 81.6012 4.48571 81.6012 3.51429C81.6012 2.52381 81.9236 1.69524 82.5685 1.02857C83.2318 0.342857 84.0332 0 84.9729 0C85.9309 0 86.7416 0.342857 87.4049 1.02857C88.0682 1.69524 88.3998 2.52381 88.3998 3.51429C88.3998 4.48571 88.0682 5.31429 87.4049 6C86.7416 6.66667 85.9309 7 84.9729 7Z" fill="#909090"/>
<path d="M98.5731 7C97.6334 7 96.832 6.66667 96.1687 6C95.5238 5.31429 95.2014 4.48571 95.2014 3.51429C95.2014 2.52381 95.5238 1.69524 96.1687 1.02857C96.832 0.342857 97.6334 0 98.5731 0C99.5311 0 100.342 0.342857 101.005 1.02857C101.668 1.69524 102 2.52381 102 3.51429C102 4.48571 101.668 5.31429 101.005 6C100.342 6.66667 99.5311 7 98.5731 7Z" fill="#909090"/>
</svg>
