<svg width="21" height="20" viewBox="0 0 21 20" fill="none" xmlns="http://www.w3.org/2000/svg">
<path d="M16.2 9.04724C15.8274 8.28696 14.8207 7.17045 12.7518 7.21796C12.7518 7.21796 11.111 7.14669 9.2561 7.14669C7.40127 7.14669 6.53291 7.19013 5.04703 7.21796C4.09582 7.1942 2.28852 7.40802 1.45621 9.37983C0.909271 11.0427 0.885483 14.5349 1.21841 16.2929C1.28976 17.1957 1.76535 18.4548 3.23973 19.12C4.14338 19.5951 5.59398 19.405 6.68787 19.5001M4.78545 6.38648C4.73789 4.12962 4.64276 2.34789 7.25859 0.874994C8.13846 0.51865 9.44638 0.209815 11.0635 0.970023C12.7518 1.99155 12.9621 3.07263 13.1085 3.34566C13.5128 4.41471 13.2988 5.93511 13.3463 6.55278" stroke="#4D4D4D" stroke-linecap="round"/>
<path d="M13.825 17.349C13.825 18.5309 12.8665 19.468 11.6924 19.468C10.5184 19.468 9.54999 18.5309 9.54999 17.349C9.54999 16.1672 10.5184 15.2176 11.6924 15.2176C12.8665 15.2176 13.825 16.1672 13.825 17.349Z" stroke="#4D4D4D"/>
<path d="M13.5634 15.5004L15.4543 13.6549M15.4543 13.6549L16.7946 12.3651C17.1021 12.1032 17.7196 11.4898 18.4539 12.1925L19.9996 13.6549M15.4543 13.6549L16.9833 15.123" stroke="#4D4D4D" stroke-linecap="round"/>
</svg>
