<svg width="40" height="40" viewBox="0 0 40 40" fill="none" xmlns="http://www.w3.org/2000/svg">
<rect width="40" height="40" rx="20" fill="#DAF1FB"/>
<path d="M15.7754 25.9008C16.7185 24.2704 18.4814 23.1734 20.5003 23.1734C22.5194 23.1734 24.2822 24.2704 25.2253 25.9008M23.2005 17.1258C23.2005 18.617 21.9915 19.8258 20.5005 19.8258C19.0093 19.8258 17.8004 18.617 17.8004 17.1258C17.8004 15.6346 19.0093 14.4258 20.5005 14.4258C21.9915 14.4258 23.2005 15.6346 23.2005 17.1258Z" stroke="#00A0E3" stroke-width="1.5" stroke-linecap="round"/>
<path d="M34 22.4803V17.1698C30.1435 17.1698 27.6357 12.9811 29.5882 9.65533L24.9117 7.00013C22.9351 10.367 18.067 10.3668 16.0904 7L11.4139 9.65519C13.3664 12.981 10.8566 17.1698 7 17.1698V22.4803C10.8565 22.4803 13.3642 26.6691 11.4117 29.9948L16.0883 32.65C18.0658 29.2815 22.9362 29.2813 24.9138 32.6499L29.5904 29.9947C27.638 26.669 30.1436 22.4803 34 22.4803Z" stroke="#00A0E3" stroke-width="1.5" stroke-linecap="round" stroke-linejoin="round"/>
</svg>
