<svg width="21" height="17" viewBox="0 0 21 17" fill="none" xmlns="http://www.w3.org/2000/svg">
<path d="M1 8.6C1 5.01732 1 3.22599 2.11299 2.11299C3.22599 1 5.01732 1 8.6 1H12.4C15.9826 1 17.7741 1 18.887 2.11299C20 3.22599 20 5.01732 20 8.6C20 12.1826 20 13.9741 18.887 15.087C17.7741 16.2 15.9826 16.2 12.4 16.2H8.6C5.01732 16.2 3.22599 16.2 2.11299 15.087C1 13.9741 1 12.1826 1 8.6Z" stroke="#4D4D4D" stroke-linecap="round" stroke-linejoin="round"/>
<path d="M9.55 6.70078C9.55 5.65144 8.69937 4.80078 7.65 4.80078C6.60066 4.80078 5.75 5.65144 5.75 6.70078C5.75 7.75015 6.60066 8.60078 7.65 8.60078C8.69937 8.60078 9.55 7.75015 9.55 6.70078Z" stroke="#4D4D4D" stroke-linecap="round" stroke-linejoin="round"/>
<path d="M11.4496 12.4016C11.4496 10.3029 9.74826 8.60156 7.64961 8.60156C5.55093 8.60156 3.84961 10.3029 3.84961 12.4016" stroke="#4D4D4D" stroke-linecap="round" stroke-linejoin="round"/>
<path d="M13.3496 5.75H17.1496" stroke="#4D4D4D" stroke-linecap="round" stroke-linejoin="round"/>
<path d="M13.3496 8.60156H17.1496" stroke="#4D4D4D" stroke-linecap="round" stroke-linejoin="round"/>
</svg>
