<svg width="21" height="20" viewBox="0 0 21 20" fill="none" xmlns="http://www.w3.org/2000/svg">
<path d="M20 9.99835C20 4.75164 15.7467 0.498352 10.5 0.498352C5.25329 0.498352 1 4.75164 1 9.99835C1 15.245 5.25329 19.4984 10.5 19.4984C11.2996 19.4984 12.4 19.6088 12.4 18.5484C12.4 17.9698 12.099 17.5235 11.8002 17.08C11.3628 16.4313 10.9297 15.7889 11.45 14.7484C12.0834 13.4817 13.1389 13.4817 14.7574 13.4817C15.5667 13.4817 16.5167 13.4817 17.625 13.3234C19.6209 13.0383 20 11.8113 20 9.99835Z" stroke="#4D4D4D"/>
<path d="M5.75 12.8543L5.75955 12.8516" stroke="#4D4D4D" stroke-linecap="round" stroke-linejoin="round"/>
<path d="M8.12336 8.09835C8.91037 8.09835 9.54836 7.46036 9.54836 6.67335C9.54836 5.88635 8.91037 5.24835 8.12336 5.24835C7.33636 5.24835 6.69836 5.88635 6.69836 6.67335C6.69836 7.46036 7.33636 8.09835 8.12336 8.09835Z" stroke="#4D4D4D"/>
<path d="M14.7721 9.04257C15.5591 9.04257 16.1971 8.40457 16.1971 7.61757C16.1971 6.83056 15.5591 6.19257 14.7721 6.19257C13.9851 6.19257 13.3471 6.83056 13.3471 7.61757C13.3471 8.40457 13.9851 9.04257 14.7721 9.04257Z" stroke="#4D4D4D"/>
</svg>
